<?xml version="1.0" standalone="no"?><!DOCTYPE svg PUBLIC "-//W3C//DTD SVG 1.1//EN" "http://www.w3.org/Graphics/SVG/1.1/DTD/svg11.dtd"><svg t="1617434160904" class="icon" viewBox="0 0 1024 1024" version="1.1" xmlns="http://www.w3.org/2000/svg" p-id="7158" xmlns:xlink="http://www.w3.org/1999/xlink" width="200" height="200"><defs><style type="text/css"></style></defs><path d="M934.912 516.096q23.552 26.624 19.456 49.664t-26.624 46.592l-324.608 327.68q-8.192 7.168-19.456 11.264t-23.04 4.608-23.04-2.56-18.432-10.24q-121.856-122.88-218.112-220.16l-80.896-80.896q-39.936-39.936-71.168-71.68t-51.2-51.2-20.992-21.504q-3.072-4.096-10.752-14.848t-6.656-25.088l0-19.456 0-40.96q0-23.552 0.512-52.736t0.512-58.88q1.024-70.656 2.048-156.672 2.048-13.312 6.144-24.064t15.36-22.016q10.24-11.264 22.016-16.384t22.016-5.12l329.728 0q2.048 0 9.216 0.512t10.24 1.536q6.144 2.048 11.264 5.12t10.24 8.192zM217.088 317.44q40.96 0 69.12-28.672t28.16-69.632-28.16-69.632-69.12-28.672q-20.48 0-37.888 7.68t-30.72 20.992-20.992 31.232-7.68 38.4 7.68 38.4 20.992 31.232 30.72 20.992 37.888 7.68z" p-id="7159"></path></svg>