<?xml version="1.0" standalone="no"?><!DOCTYPE svg PUBLIC "-//W3C//DTD SVG 1.1//EN" "http://www.w3.org/Graphics/SVG/1.1/DTD/svg11.dtd"><svg t="1617434127994" class="icon" viewBox="0 0 1024 1024" version="1.1" xmlns="http://www.w3.org/2000/svg" p-id="7023" xmlns:xlink="http://www.w3.org/1999/xlink" width="200" height="200"><defs><style type="text/css"></style></defs><path d="M964.608 503.808q1.024 88.064-30.72 166.4t-87.04 138.24-131.072 98.816-162.816 48.128q-23.552 2.048-49.152 4.608t-56.832 3.072-69.632-0.512-86.528-5.12q-105.472-10.24-157.696-26.624t-41.984-18.432q28.672-5.12 51.712-12.288t41.472-18.432q20.48-11.264 16.896-32.256t-19.968-39.424q-51.2-57.344-83.968-133.12t-34.816-164.864q-1.024-93.184 33.792-175.104t95.232-143.36 142.336-97.792 176.128-37.376q93.184-1.024 175.616 33.792t143.872 95.232 97.792 141.824 37.376 174.592zM576.512 636.928l0-57.344 144.384 0q20.48-2.048 31.744-8.704t13.312-25.088q-2.048-19.456-12.8-27.648t-31.232-10.24l-100.352 0 95.232-149.504q8.192-9.216 13.824-24.064t5.632-26.112q-4.096-32.768-19.456-40.96t-36.864-10.24q-18.432 2.048-31.744 10.752t-31.744 44.544q-9.216 18.432-25.6 48.64t-33.792 59.904q-19.456 33.792-41.984 71.68-19.456-35.84-37.888-68.608-15.36-27.648-30.208-56.32t-23.04-46.08q-17.408-32.768-31.744-47.616t-32.768-16.896q-31.744 4.096-43.008 17.408t-15.36 33.792q-1.024 17.408 6.144 31.232t15.36 24.064l83.968 144.384-99.328 0q-20.48 2.048-31.232 10.24t-12.8 27.648q2.048 18.432 12.8 25.6t31.232 9.216l137.216 1.024 0 55.296-137.216 0q-20.48 2.048-31.232 7.68t-12.8 25.088q2.048 19.456 12.8 25.6t31.232 8.192l137.216 0 0 65.536q3.072 64.512 66.56 64.512 32.768 0 48.128-15.872t17.408-48.64l0-66.56 145.408 1.024q20.48-2.048 31.232-6.656t12.8-23.04q-2.048-19.456-12.8-27.136t-31.232-9.728l-145.408 0z" p-id="7024"></path></svg>